<?xml version="1.0" standalone="no"?>
<!DOCTYPE svg PUBLIC "-//W3C//DTD SVG 20010904//EN"
 "http://www.w3.org/TR/2001/REC-SVG-20010904/DTD/svg10.dtd">
<svg version="1.0" xmlns="http://www.w3.org/2000/svg"
 width="128.000000pt" height="128.000000pt" viewBox="0 0 128.000000 128.000000"
 preserveAspectRatio="xMidYMid meet">

<g transform="translate(0.000000,128.000000) scale(0.100000,-0.100000)"
fill="#000000" stroke="none">
<path d="M420 1266 c-81 -21 -138 -48 -203 -97 -218 -162 -279 -469 -141 -704
44 -75 145 -168 227 -208 187 -92 388 -72 569 56 16 10 38 -8 182 -152 147
-147 167 -163 190 -157 17 4 28 15 32 32 6 23 -10 43 -157 190 -144 144 -162
166 -152 182 96 135 132 287 104 434 -35 182 -179 347 -359 409 -75 26 -218
33 -292 15z m311 -128 c96 -47 162 -113 206 -204 66 -137 62 -286 -10 -414
-29 -50 -115 -137 -163 -164 -134 -75 -278 -80 -418 -13 -91 44 -157 110 -204
206 -36 73 -37 78 -37 190 0 110 2 120 32 183 54 114 146 197 268 241 38 13
74 17 151 15 93 -3 107 -6 175 -40z"/>
<path d="M275 973 c-38 -40 -62 -90 -76 -161 -15 -72 -6 -110 29 -123 35 -13
62 20 62 76 0 53 19 104 55 147 29 34 31 50 9 72 -23 23 -50 19 -79 -11z"/>
</g>
</svg>
