<svg xmlns="http://www.w3.org/2000/svg" x="0px" y="0px"
     width="80" height="80"
     viewBox="0 0 172 172"
     style=" fill:#000000;">
    <g transform="translate(0.946,0.946) scale(0.989,0.989)">
        <g fill="none" fill-rule="nonzero" stroke="none" stroke-width="none" stroke-linecap="butt"
           stroke-miterlimit="10" stroke-dasharray="" stroke-dashoffset="0" font-family="none"
           font-size="none" style="mix-blend-mode: normal">
            <g stroke="#333333" stroke-width="2" stroke-linejoin="round">
                <g>
                    <path d="M150.5,86c0.00078,14.90056 -7.12664,28.90233 -19.17511,37.66936c-12.04847,8.76703 -27.56388,11.24126 -41.74155,6.65647v-88.65167c11.83593,-3.82673 24.71074,-2.76072 35.75612,2.96053c11.04538,5.72125 19.34376,15.62246 23.04638,27.49781c1.41551,4.48585 2.12866,9.16364 2.11417,13.8675z"
                          fill="#ffd747"></path>
                    <path d="M168.41667,89.58333h-10.75c-1.97902,0 -3.58333,-1.60431 -3.58333,-3.58333c0,-1.97902 1.60431,-3.58333 3.58333,-3.58333h10.75c1.97902,0 3.58333,1.60431 3.58333,3.58333c0,1.97902 -1.60431,3.58333 -3.58333,3.58333z"
                          fill="#ffd747"></path>
                    <path d="M103.91667,154.08333c-1.97902,0 -3.58333,-1.60431 -3.58333,-3.58333v-10.75c0,-1.97902 1.60431,-3.58333 3.58333,-3.58333c1.97902,0 3.58333,1.60431 3.58333,3.58333v10.75c0,1.97902 -1.60431,3.58333 -3.58333,3.58333z"
                          fill="#ffd747"></path>
                    <path d="M103.91667,35.83333c-1.97902,0 -3.58333,-1.60431 -3.58333,-3.58333v-10.75c0,-1.97902 1.60431,-3.58333 3.58333,-3.58333c1.97902,0 3.58333,1.60431 3.58333,3.58333v10.75c0,1.97902 -1.60431,3.58333 -3.58333,3.58333z"
                          fill="#ffd747"></path>
                    <path d="M142.72417,50.77583c-1.44909,-0.00031 -2.75535,-0.87336 -3.30985,-2.21215c-0.5545,-1.3388 -0.24807,-2.87978 0.77643,-3.9046l7.77583,-7.77583c1.40602,-1.35798 3.64097,-1.33856 5.02318,0.04365c1.38221,1.38221 1.40163,3.61716 0.04365,5.02318l-7.77583,7.77583c-0.67185,0.67205 -1.58314,1.04971 -2.53342,1.04992z"
                          fill="#ffd747"></path>
                    <path d="M150.5,136.16667c-0.95028,-0.0002 -1.86157,-0.37786 -2.53342,-1.04992l-7.77583,-7.77583c-1.35798,-1.40602 -1.33856,-3.64097 0.04365,-5.02318c1.38221,-1.38221 3.61716,-1.40163 5.02318,-0.04365l7.77583,7.77583c1.0245,1.02481 1.33093,2.5658 0.77643,3.9046c-0.5545,1.3388 -1.86076,2.21185 -3.30985,2.21215z"
                          fill="#ffd747"></path>
                    <path d="M100.33333,39.55642v92.88717c-3.65492,-0.27501 -7.26386,-0.98597 -10.75,-2.11775v-88.65167c3.48614,-1.13178 7.09508,-1.84274 10.75,-2.11775z"
                          fill="#ffb13b"></path>
                    <path d="M150.5,86c0,25.72726 -20.85607,46.58333 -46.58333,46.58333c-1.20758,0 -2.40083,-0.05017 -3.58333,-0.13975v-0.46583c22.67407,-3.5181 39.40363,-23.03237 39.41667,-45.97775c0.0145,-4.70386 -0.69866,-9.38165 -2.11417,-13.8675c-5.29052,-16.95017 -19.75718,-29.41846 -37.3025,-32.14967v-0.42642c1.1825,-0.08958 2.37575,-0.13975 3.58333,-0.13975c20.38455,0.00095 38.40084,13.25548 44.46917,32.71583c1.41551,4.48585 2.12866,9.16364 2.11417,13.8675z"
                          fill="#fff566"></path>
                    <path d="M107.5,100.33333c-5.92322,-0.03328 -10.71672,-4.82678 -10.75,-10.75v-14.33333h7.16667v14.33333c-0.00942,0.93497 0.36336,1.83325 1.032,2.48683c0.66317,0.70123 1.58618,1.09792 2.55133,1.0965c1.97902,0 3.58333,-1.60431 3.58333,-3.58333v-14.33333h7.16667v14.33333c0,5.93706 -4.81294,10.75 -10.75,10.75z"
                          fill="#ffffff"></path>
                    <path d="M132.58333,100.33333c-1.36463,0.00745 -2.61502,-0.76085 -3.225,-1.98158l-7.16667,-14.33333c-0.24176,-0.499 -0.36442,-1.0473 -0.35833,-1.60175v-7.16667h7.16667v6.321l3.58333,7.16667l3.58333,-7.16667v-6.321h7.16667v7.16667c0.00609,0.55445 -0.11657,1.10275 -0.35833,1.60175l-7.16667,14.33333c-0.60998,1.22073 -1.86037,1.98903 -3.225,1.98158z"
                          fill="#ffffff"></path>
                    <path d="M89.58333,93.16667l-28.66667,-7.16667l28.66667,-7.16667z" fill="#e9edf5"></path>
                    <path d="M89.58333,136.16667v17.91667c0,7.91608 -6.41725,14.33333 -14.33333,14.33333h-57.33333c-7.91608,0 -14.33333,-6.41725 -14.33333,-14.33333v-17.91667z"
                          fill="#9eebff"></path>
                    <path d="M89.58333,136.16667h-86v-32.25h86z" fill="#c2fa93"></path>
                    <path d="M89.58333,93.16667v10.75h-86v-35.83333h86v10.75l-28.66667,7.16667z" fill="#ffee6e"></path>
                    <path d="M89.58333,68.08333h-86v-32.25h86z" fill="#ffb13b"></path>
                    <path d="M89.58333,17.91667v17.91667h-86v-17.91667c0,-7.91608 6.41725,-14.33333 14.33333,-14.33333h57.33333c7.91608,0 14.33333,6.41725 14.33333,14.33333z"
                          fill="#ff475a"></path>
                    <path d="M35.83333,168.41667h-17.91667c-7.91608,0 -14.33333,-6.41725 -14.33333,-14.33333v-17.91667h17.91667v17.91667c0,7.91608 6.41725,14.33333 14.33333,14.33333z"
                          fill="#3ad6ff"></path>
                    <path d="M3.58333,136.16667v-32.25h17.91667v32.25z" fill="#86c983"></path>
                    <path d="M3.58333,103.91667v-35.83333h17.91667v35.83333z" fill="#ffd747"></path>
                    <path d="M3.58333,68.08333v-32.25h17.91667v32.25z" fill="#ff9500"></path>
                    <path d="M21.5,35.83333h-17.91667v-17.91667c0,-7.91608 6.41725,-14.33333 14.33333,-14.33333h17.91667c-7.91608,0 -14.33333,6.41725 -14.33333,14.33333z"
                          fill="#d1093a"></path>
                    <path d="M89.58333,17.91667v60.91667l-3.58333,0.89583v-61.8125c0,-5.93706 -4.81294,-10.75 -10.75,-10.75h-57.33333c-5.93706,0 -10.75,4.81294 -10.75,10.75v136.16667c0,5.93706 4.81294,10.75 10.75,10.75h57.33333c5.93706,0 10.75,-4.81294 10.75,-10.75v-61.8125l3.58333,0.89583v60.91667c0,7.91608 -6.41725,14.33333 -14.33333,14.33333h-57.33333c-7.91608,0 -14.33333,-6.41725 -14.33333,-14.33333v-136.16667c0,-7.91608 6.41725,-14.33333 14.33333,-14.33333h57.33333c7.91608,0 14.33333,6.41725 14.33333,14.33333z"
                          fill="#e9edf5"></path>
                    <path d="M127.29449,63.98465c-3.2001,-3.19786 -3.93222,-7.65361 -1.63524,-9.95219c2.29698,-2.29858 6.75324,-1.56957 9.95333,1.62829c3.2001,3.19786 3.93222,7.65361 1.63524,9.95219c-2.29698,2.29858 -6.75324,1.56957 -9.95333,-1.62829z"
                          fill="#f6fafd"></path>
                    <path d="M118.60418,65.54478c-1.60705,-1.60593 -1.97425,-3.84401 -0.82016,-4.9989c1.15408,-1.15489 3.39242,-0.78925 4.99947,0.81667c1.60705,1.60593 1.97425,3.84401 0.82016,4.9989c-1.15408,1.15489 -3.39242,0.78925 -4.99947,-0.81667z"
                          fill="#f6fafd"></path>
                    <path d="M72.01979,22.54225c-1.60705,-1.60593 -1.97425,-3.84401 -0.82016,-4.9989c1.15408,-1.15489 3.39242,-0.78925 4.99947,0.81667c1.60705,1.60593 1.97425,3.84401 0.82016,4.9989c-1.15408,1.15489 -3.39242,0.78925 -4.99947,-0.81667z"
                          fill="#f6fafd"></path>
                    <path d="M72.15171,30.46136c-0.80352,-0.80296 -0.98656,-1.92257 -0.40881,-2.50072c0.57774,-0.57815 1.69748,-0.39589 2.501,0.40707c0.80352,0.80296 0.98656,1.92257 0.40881,2.50072c-0.57774,0.57815 -1.69748,0.39589 -2.501,-0.40707z"
                          fill="#f6fafd"></path>
                </g>
            </g>
            <path d="M0,172v-172h172v172z" fill="none" stroke="none" stroke-width="1" stroke-linejoin="miter"></path>
            <path d="" fill="none" stroke="none" stroke-width="1" stroke-linejoin="miter"></path>
            <path d="" fill="none" stroke="none" stroke-width="1" stroke-linejoin="miter"></path>
            <g stroke="none" stroke-width="1" stroke-linejoin="miter">
                <g>
                    <path d="M148.38583,72.1325c-3.70262,-11.87534 -12.001,-21.77655 -23.04638,-27.49781c-11.04538,-5.72125 -23.92019,-6.78726 -35.75612,-2.96053v88.65167c14.17767,4.58479 29.69308,2.11056 41.74155,-6.65647c12.04847,-8.76703 19.1759,-22.76881 19.17511,-37.66936c0.0145,-4.70386 -0.69866,-9.38165 -2.11417,-13.8675z"
                          fill="#ffd747"></path>
                    <path d="M168.41667,89.58333h-10.75c-1.97902,0 -3.58333,-1.60431 -3.58333,-3.58333c0,-1.97902 1.60431,-3.58333 3.58333,-3.58333h10.75c1.97902,0 3.58333,1.60431 3.58333,3.58333c0,1.97902 -1.60431,3.58333 -3.58333,3.58333z"
                          fill="#ffd747"></path>
                    <path d="M103.91667,154.08333c-1.97902,0 -3.58333,-1.60431 -3.58333,-3.58333v-10.75c0,-1.97902 1.60431,-3.58333 3.58333,-3.58333c1.97902,0 3.58333,1.60431 3.58333,3.58333v10.75c0,1.97902 -1.60431,3.58333 -3.58333,3.58333z"
                          fill="#ffd747"></path>
                    <path d="M103.91667,35.83333c-1.97902,0 -3.58333,-1.60431 -3.58333,-3.58333v-10.75c0,-1.97902 1.60431,-3.58333 3.58333,-3.58333c1.97902,0 3.58333,1.60431 3.58333,3.58333v10.75c0,1.97902 -1.60431,3.58333 -3.58333,3.58333z"
                          fill="#ffd747"></path>
                    <path d="M142.72417,50.77583c-1.44909,-0.00031 -2.75535,-0.87336 -3.30985,-2.21215c-0.5545,-1.3388 -0.24807,-2.87978 0.77643,-3.9046l7.77583,-7.77583c1.40602,-1.35798 3.64097,-1.33856 5.02318,0.04365c1.38221,1.38221 1.40163,3.61716 0.04365,5.02318l-7.77583,7.77583c-0.67185,0.67205 -1.58314,1.04971 -2.53342,1.04992z"
                          fill="#ffd747"></path>
                    <path d="M150.5,136.16667c-0.95028,-0.0002 -1.86157,-0.37786 -2.53342,-1.04992l-7.77583,-7.77583c-1.35798,-1.40602 -1.33856,-3.64097 0.04365,-5.02318c1.38221,-1.38221 3.61716,-1.40163 5.02318,-0.04365l7.77583,7.77583c1.0245,1.02481 1.33093,2.5658 0.77643,3.9046c-0.5545,1.3388 -1.86076,2.21185 -3.30985,2.21215z"
                          fill="#ffd747"></path>
                    <path d="M89.58333,41.67417v88.65167c3.48614,1.13178 7.09508,1.84274 10.75,2.11775v-92.88717c-3.65492,0.27501 -7.26386,0.98597 -10.75,2.11775z"
                          fill="#ffb13b"></path>
                    <path d="M148.38583,72.1325c-6.06832,-19.46035 -24.08462,-32.71489 -44.46917,-32.71583c-1.20758,0 -2.40083,0.05017 -3.58333,0.13975v0.42642c17.54532,2.73121 32.01198,15.1995 37.3025,32.14967c1.41551,4.48585 2.12866,9.16364 2.11417,13.8675c-0.01303,22.94538 -16.74259,42.45965 -39.41667,45.97775v0.46583c1.1825,0.08958 2.37575,0.13975 3.58333,0.13975c25.72726,0 46.58333,-20.85607 46.58333,-46.58333c0.0145,-4.70386 -0.69866,-9.38165 -2.11417,-13.8675z"
                          fill="#fff566"></path>
                    <path d="M107.5,100.33333c-5.92322,-0.03328 -10.71672,-4.82678 -10.75,-10.75v-14.33333h7.16667v14.33333c-0.00942,0.93497 0.36336,1.83325 1.032,2.48683c0.66317,0.70123 1.58618,1.09792 2.55133,1.0965c1.97902,0 3.58333,-1.60431 3.58333,-3.58333v-14.33333h7.16667v14.33333c0,5.93706 -4.81294,10.75 -10.75,10.75z"
                          fill="#ffffff"></path>
                    <path d="M132.58333,100.33333c-1.36463,0.00745 -2.61502,-0.76085 -3.225,-1.98158l-7.16667,-14.33333c-0.24176,-0.499 -0.36442,-1.0473 -0.35833,-1.60175v-7.16667h7.16667v6.321l3.58333,7.16667l3.58333,-7.16667v-6.321h7.16667v7.16667c0.00609,0.55445 -0.11657,1.10275 -0.35833,1.60175l-7.16667,14.33333c-0.60998,1.22073 -1.86037,1.98903 -3.225,1.98158z"
                          fill="#ffffff"></path>
                    <path d="M89.58333,89.58333v3.58333l-28.66667,-7.16667l28.66667,-7.16667z" fill="#e9edf5"></path>
                    <path d="M89.58333,136.16667v17.91667c0,7.91608 -6.41725,14.33333 -14.33333,14.33333h-57.33333c-7.91608,0 -14.33333,-6.41725 -14.33333,-14.33333v-17.91667z"
                          fill="#9eebff"></path>
                    <path d="M89.58333,130.32583v5.84083h-86v-32.25h86z" fill="#c2fa93"></path>
                    <path d="M89.58333,93.16667v10.75h-86v-35.83333h86v10.75l-28.66667,7.16667z" fill="#ffee6e"></path>
                    <path d="M89.58333,41.67417v26.40917h-86v-32.25h86z" fill="#ffb13b"></path>
                    <path d="M89.58333,17.91667v17.91667h-86v-17.91667c0,-7.91608 6.41725,-14.33333 14.33333,-14.33333h57.33333c7.91608,0 14.33333,6.41725 14.33333,14.33333z"
                          fill="#ff475a"></path>
                    <path d="M21.5,154.08333v-17.91667h-17.91667v17.91667c0,7.91608 6.41725,14.33333 14.33333,14.33333h17.91667c-7.91608,0 -14.33333,-6.41725 -14.33333,-14.33333z"
                          fill="#3ad6ff"></path>
                    <rect x="1" y="29" transform="scale(3.58333,3.58333)" width="5" height="9" fill="#86c983"></rect>
                    <rect x="1" y="19" transform="scale(3.58333,3.58333)" width="5" height="10" fill="#ffd747"></rect>
                    <rect x="1" y="10" transform="scale(3.58333,3.58333)" width="5" height="9" fill="#ff9500"></rect>
                    <path d="M21.5,17.91667c0,-7.91608 6.41725,-14.33333 14.33333,-14.33333h-17.91667c-7.91608,0 -14.33333,6.41725 -14.33333,14.33333v17.91667h17.91667z"
                          fill="#d1093a"></path>
                    <path d="M75.25,3.58333h-57.33333c-7.91608,0 -14.33333,6.41725 -14.33333,14.33333v136.16667c0,7.91608 6.41725,14.33333 14.33333,14.33333h57.33333c7.91608,0 14.33333,-6.41725 14.33333,-14.33333v-60.91667l-3.58333,-0.89583v61.8125c0,5.93706 -4.81294,10.75 -10.75,10.75h-57.33333c-5.93706,0 -10.75,-4.81294 -10.75,-10.75v-136.16667c0,-5.93706 4.81294,-10.75 10.75,-10.75h57.33333c5.93706,0 10.75,4.81294 10.75,10.75v61.8125l3.58333,-0.89583v-60.91667c0,-7.91608 -6.41725,-14.33333 -14.33333,-14.33333z"
                          fill="#e9edf5"></path>
                    <ellipse cx="14.12189" cy="37.74988" transform="rotate(-45.02) scale(3.58333,3.58333)" rx="1.642"
                             ry="2.286" fill="#f6fafd"></ellipse>
                    <ellipse cx="11.28264" cy="36.34216" transform="rotate(-45.02) scale(3.58333,3.58333)" rx="0.825"
                             ry="1.148" fill="#f6fafd"></ellipse>
                    <ellipse cx="10.582" cy="18.66354" transform="rotate(-45.02) scale(3.58333,3.58333)" rx="0.825"
                             ry="1.148" fill="#f6fafd"></ellipse>
                    <ellipse cx="8.63278" cy="20.25172" transform="rotate(-45.02) scale(3.58333,3.58333)" rx="0.413"
                             ry="0.574" fill="#f6fafd"></ellipse>
                </g>
            </g>
            <path d="" fill="none" stroke="none" stroke-width="1" stroke-linejoin="miter"></path>
            <path d="" fill="none" stroke="none" stroke-width="1" stroke-linejoin="miter"></path>
            <path d="" fill="none" stroke="none" stroke-width="1" stroke-linejoin="miter"></path>
            <path d="" fill="none" stroke="none" stroke-width="1" stroke-linejoin="miter"></path>
            <path d="" fill="none" stroke="none" stroke-width="1" stroke-linejoin="miter"></path>
            <path d="" fill="none" stroke="none" stroke-width="1" stroke-linejoin="miter"></path>
        </g>
    </g>
</svg>